<?xml version="1.0" standalone="no"?>
<!DOCTYPE svg PUBLIC "-//W3C//DTD SVG 20010904//EN"
 "http://www.w3.org/TR/2001/REC-SVG-20010904/DTD/svg10.dtd">
<svg version="1.0" xmlns="http://www.w3.org/2000/svg"
 width="1024.000000pt" height="1024.000000pt" viewBox="0 0 1024.000000 1024.000000"
 preserveAspectRatio="xMidYMid meet">

<g transform="translate(0.000000,1024.000000) scale(0.100000,-0.100000)"
fill="#000000" stroke="none">
<path d="M5108 7000 c6 -103 -6 -147 -83 -310 -70 -148 -95 -228 -95 -305 0
-69 24 -156 63 -229 l32 -60 7 64 c7 78 33 147 98 260 93 162 120 270 100 389
-12 72 -59 181 -102 238 l-25 32 5 -79z"/>
<path d="M4797 6413 c-72 -140 -98 -237 -104 -379 -9 -199 26 -330 133 -500
84 -134 147 -207 399 -464 419 -427 507 -532 600 -723 70 -143 95 -242 96
-372 1 -154 -42 -287 -127 -399 -50 -66 -16 -45 73 45 325 325 381 761 152
1165 -106 186 -219 316 -620 714 -136 135 -278 284 -316 332 -175 221 -252
411 -240 591 3 42 4 77 2 77 -2 0 -23 -39 -48 -87z"/>
<path d="M5374 6450 c17 -115 -37 -302 -131 -459 l-63 -105 25 -35 c14 -20 68
-81 120 -136 l95 -100 19 23 c11 12 35 60 53 105 33 81 33 84 32 242 0 148 -2
167 -28 245 -28 83 -98 235 -118 255 -7 7 -8 -4 -4 -35z"/>
<path d="M5180 6357 l-32 -66 7 -126 7 -125 19 24 c27 35 69 129 75 168 3 20
-5 65 -19 112 l-24 80 -33 -67z"/>
<path d="M4580 5253 c-328 -335 -457 -538 -507 -798 -22 -116 -13 -292 22
-410 56 -193 168 -363 319 -488 l51 -42 -27 35 c-48 61 -96 152 -120 230 -19
61 -23 97 -23 195 1 147 17 210 90 360 84 172 252 379 534 659 l120 119 -81
86 c-73 78 -138 158 -178 220 -15 23 -17 22 -200 -166z"/>
<path d="M4900 4697 c-310 -153 -489 -418 -490 -723 0 -246 147 -489 362 -597
206 -103 455 -103 667 -1 158 77 271 208 331 386 16 46 32 115 35 153 l7 70
-38 -36 c-118 -111 -285 -159 -440 -126 -362 77 -537 478 -369 845 19 39 31
72 27 72 -4 0 -45 -19 -92 -43z"/>
</g>
</svg>
